<svg width="35" height="35" viewBox="0 0 35 35" fill="none" xmlns="http://www.w3.org/2000/svg">
<g clip-path="url(#clip0_48_188)">
<path d="M17.5 0C15.0956 0 12.8279 0.454005 10.6967 1.36203C8.56556 2.29757 6.70766 3.5564 5.12295 5.13856C3.53824 6.72072 2.29509 8.5849 1.39344 10.7311C0.464476 12.8774 0 15.1612 0 17.5825C0 19.7838 0.38251 21.8612 1.14754 23.8149C1.91257 25.796 2.95081 27.557 4.2623 29.0979C5.57378 30.6388 7.13114 31.9182 8.93443 32.9363C10.7377 33.9819 12.6776 34.6698 14.7541 35V22.7005H10.3279V17.5825H14.7541V13.7028C14.7541 11.5016 15.3552 9.80936 16.5574 8.62618C17.7596 7.443 19.3716 6.85142 21.3934 6.85142C22.3497 6.85142 23.2377 6.91333 24.0574 7.03715C24.8771 7.16097 25.2869 7.22288 25.2869 7.22288V11.5153H23.0738C21.9809 11.5153 21.2363 11.8042 20.8402 12.3821C20.444 12.9599 20.2459 13.5928 20.2459 14.2807V17.5825H25.082L24.3033 22.7005H20.2459V35C22.3224 34.6698 24.2623 33.9819 26.0656 32.9363C27.8689 31.9182 29.4331 30.6388 30.7582 29.0979C32.0833 27.557 33.1147 25.796 33.8525 23.8149C34.6175 21.8612 35 19.7838 35 17.5825C35 15.1612 34.5355 12.8774 33.6066 10.7311C32.7049 8.5849 31.4618 6.72072 29.877 5.13856C28.2923 3.5564 26.4344 2.29757 24.3033 1.36203C22.1721 0.454005 19.9044 0 17.5 0Z" fill="white"/>
</g>
<defs>
<clipPath id="clip0_48_188">
<rect width="35" height="35" fill="white"/>
</clipPath>
</defs>
</svg>
