<svg width="35" height="35" viewBox="0 0 35 35" fill="none" xmlns="http://www.w3.org/2000/svg">
<g clip-path="url(#clip0_48_186)">
<path d="M17.5 8.5C16.2543 8.5 15.0846 8.72727 13.9909 9.18182C12.8971 9.66667 11.9477 10.3182 11.1426 11.1364C10.3375 11.9545 9.69184 12.8939 9.20573 13.9545C8.75 15.0455 8.52214 16.2121 8.52214 17.4545C8.52214 18.697 8.75 19.8636 9.20573 20.9545C9.69184 22.0455 10.3375 23 11.1426 23.8182C11.9477 24.6364 12.8971 25.2727 13.9909 25.7273C15.0846 26.2121 16.2543 26.4545 17.5 26.4545C18.7457 26.4545 19.9154 26.2121 21.0091 25.7273C22.1029 25.2727 23.0523 24.6364 23.8574 23.8182C24.6625 23 25.3082 22.0455 25.7943 20.9545C26.25 19.8636 26.4779 18.697 26.4779 17.4545C26.4779 16.2121 26.25 15.0455 25.7943 13.9545C25.3082 12.8939 24.6625 11.9545 23.8574 11.1364C23.0523 10.3182 22.1029 9.66667 21.0091 9.18182C19.9154 8.72727 18.7457 8.5 17.5 8.5ZM17.5 23.2727C15.8897 23.2727 14.515 22.7046 13.3757 21.5682C12.2363 20.4318 11.6667 19.0606 11.6667 17.4545C11.6667 15.8485 12.2363 14.4773 13.3757 13.3409C14.515 12.2045 15.8897 11.6364 17.5 11.6364C19.1103 11.6364 20.485 12.2045 21.6243 13.3409C22.7637 14.4773 23.3333 15.8485 23.3333 17.4545C23.3333 19.0606 22.7637 20.4318 21.6243 21.5682C20.485 22.7046 19.1103 23.2727 17.5 23.2727ZM28.9388 8.18182C28.9388 8.75758 28.7337 9.25 28.3236 9.65909C27.9134 10.0682 27.4197 10.2727 26.8424 10.2727C26.2652 10.2727 25.7715 10.0682 25.3613 9.65909C24.9512 9.25 24.7461 8.75758 24.7461 8.18182C24.7461 7.60606 24.9512 7.11364 25.3613 6.70455C25.7715 6.29545 26.2652 6.09091 26.8424 6.09091C27.4197 6.09091 27.9134 6.29545 28.3236 6.70455C28.7337 7.11364 28.9388 7.60606 28.9388 8.18182ZM34.0885 6.04545C33.6328 4.86363 32.9644 3.83334 32.0833 2.95455C31.2023 2.07575 30.1845 1.40909 29.0299 0.954545H28.9844C28.3464 0.71212 27.6704 0.515152 26.9564 0.363637C26.2424 0.212121 25.5056 0.136363 24.7461 0.136363H24.7005C23.7891 0.0757572 22.9536 0.0378791 22.194 0.0227271C21.4345 0.00757602 19.8698 0 17.5 0C15.1302 0 13.5655 0.00757602 12.806 0.0227271C12.0464 0.0378791 11.2109 0.0757572 10.2995 0.136363C9.53993 0.136363 8.79558 0.212121 8.06641 0.363637C7.33724 0.515152 6.63846 0.71212 5.97005 0.954545H6.0612C4.8763 1.40909 3.84332 2.07575 2.96224 2.95455C2.08116 3.83334 1.41276 4.84848 0.957031 6L0.911459 6.04545C0.668402 6.68182 0.478516 7.35606 0.341797 8.06818C0.205077 8.78031 0.121528 9.51515 0.091146 10.2727C0.060764 11.2121 0.0379777 12.053 0.0227862 12.7955C0.00759575 13.5379 0 15.0909 0 17.4545C0 19.8485 0.00759575 21.4167 0.0227862 22.1591C0.0379777 22.9015 0.060764 23.7424 0.091146 24.6818C0.121528 25.4091 0.205077 26.1288 0.341797 26.8409C0.478516 27.553 0.668402 28.2424 0.911459 28.9091C1.39757 30.0909 2.08116 31.1212 2.96224 32C3.84332 32.8788 4.84591 33.5455 5.97005 34H6.0612C6.66884 34.2727 7.32964 34.4848 8.04362 34.6364C8.7576 34.7879 9.49436 34.8788 10.2539 34.9091H10.2995C11.2413 34.9394 12.0844 34.9621 12.8288 34.9773C13.5731 34.9924 15.1302 35 17.5 35C19.8698 35 21.4345 34.9924 22.194 34.9773C22.9536 34.9621 23.8042 34.9394 24.7461 34.9091C25.5056 34.8788 26.25 34.7955 26.9792 34.6591C27.7083 34.5227 28.4071 34.3182 29.0755 34.0455L28.9844 34.0909C30.1693 33.6061 31.2023 32.9318 32.0833 32.0682C32.9644 31.2045 33.6328 30.197 34.0885 29.0455V28.9545C34.362 28.2879 34.5671 27.5985 34.7038 26.8864C34.8405 26.1742 34.9089 25.4545 34.9089 24.7273C34.9392 23.7879 34.962 22.947 34.9772 22.2045C34.9924 21.4621 35 19.9091 35 17.5455C35 15.1818 35 13.6212 35 12.8636C35 12.1061 34.9696 11.2727 34.9089 10.3636C34.9089 9.57575 34.8329 8.81061 34.681 8.06818C34.5291 7.32575 34.3164 6.62122 34.043 5.95455L34.0885 6.04545ZM31.7188 24.5455C31.7188 25.1212 31.6656 25.6894 31.5592 26.25C31.4529 26.8106 31.2934 27.3485 31.0807 27.8636L31.1263 27.8182C30.8225 28.5758 30.3819 29.2424 29.8047 29.8182C29.2274 30.3939 28.5742 30.8182 27.8451 31.0909L27.7995 31.1364C27.3134 31.3182 26.7969 31.4621 26.25 31.5682C25.7031 31.6742 25.1411 31.7273 24.5638 31.7273C23.622 31.7576 22.7941 31.7803 22.0801 31.7955C21.3661 31.8106 19.8242 31.8182 17.4544 31.8182C15.0846 31.8182 13.5428 31.8182 12.8288 31.8182C12.1148 31.8182 11.2869 31.7879 10.3451 31.7273C9.73741 31.7273 9.16016 31.6742 8.61328 31.5682C8.0664 31.4621 7.53472 31.303 7.01823 31.0909L7.0638 31.1364C6.30425 30.8333 5.63585 30.3939 5.05859 29.8182C4.48133 29.2424 4.0408 28.5909 3.73698 27.8636V27.8182C3.55469 27.3333 3.41037 26.8182 3.30404 26.2727C3.1977 25.7273 3.14453 25.1667 3.14453 24.5909V24.5455C3.08377 23.6364 3.05339 22.8182 3.05339 22.0909C3.05339 21.3636 3.05339 19.8333 3.05339 17.5C3.05339 15.1364 3.05339 13.5985 3.05339 12.8864C3.05339 12.1742 3.08377 11.3485 3.14453 10.4091C3.14453 9.80303 3.1977 9.2197 3.30404 8.65909C3.41037 8.09848 3.56988 7.56061 3.78255 7.04545L3.73698 7.13636C4.0408 6.34848 4.48133 5.66667 5.05859 5.09091C5.63585 4.51515 6.30425 4.09091 7.0638 3.81818C7.54992 3.63636 8.0664 3.49242 8.61328 3.38636C9.16016 3.2803 9.73741 3.21212 10.3451 3.18182C11.2565 3.15152 12.0768 3.12879 12.806 3.11364C13.5352 3.09848 15.0846 3.09091 17.4544 3.09091C19.8242 3.09091 21.3661 3.09848 22.0801 3.11364C22.7941 3.12879 23.622 3.15152 24.5638 3.18182C25.1411 3.21212 25.7031 3.2803 26.25 3.38636C26.7969 3.49242 27.3286 3.63636 27.8451 3.81818H27.7995C28.559 4.12121 29.2274 4.55303 29.8047 5.11364C30.3819 5.67425 30.8225 6.33333 31.1263 7.09091V7.13636C31.3086 7.59091 31.4529 8.09848 31.5592 8.65909C31.6656 9.2197 31.7188 9.78788 31.7188 10.3636C31.7491 11.2727 31.7719 12.0909 31.7871 12.8182C31.8023 13.5455 31.8099 15.0909 31.8099 17.4545C31.8099 19.8182 31.8099 21.3561 31.8099 22.0682C31.8099 22.7803 31.7947 23.6061 31.7643 24.5455H31.7188Z" fill="white"/>
</g>
<defs>
<clipPath id="clip0_48_186">
<rect width="35" height="35" fill="white"/>
</clipPath>
</defs>
</svg>
